REM DIRINDEX 1\2\4,1\2\5,1\2\6,1\3\7,1\3\8,1\3\9,1\3\10
REM DIRNAME cjc058,folder01,folder02,folder03,folder04,folder05,folder06,folder07,folder08,folder09
TITLE ""
FILE "b_48.mp3" MP3
  TRACK 01 AUDIO
    TITLE "0:"
    INDEX 01 00:00:00
  TRACK 02 AUDIO
    TITLE "10:cjc058_4294"
    INDEX 01 00:00:13
  TRACK 03 AUDIO
    TITLE "0:"
    INDEX 01 00:02:59
  TRACK 04 AUDIO
    TITLE "7:cjc058_4295"
    INDEX 01 00:03:35
  TRACK 05 AUDIO
    TITLE "0:"
    INDEX 01 00:04:54
  TRACK 06 AUDIO
    TITLE "8:cjc058_4296"
    INDEX 01 00:05:14
  TRACK 07 AUDIO
    TITLE "0:"
    INDEX 01 00:06:00
  TRACK 08 AUDIO
    TITLE "9:cjc058_4297"
    INDEX 01 00:06:43
  TRACK 09 AUDIO
    TITLE "0:"
    INDEX 01 00:10:66
  TRACK 10 AUDIO
    TITLE "7:cjc058_4298"
    INDEX 01 00:12:03
  TRACK 11 AUDIO
    TITLE "0:"
    INDEX 01 00:13:14
  TRACK 12 AUDIO
    TITLE "8:cjc058_4299"
    INDEX 01 00:13:49
  TRACK 13 AUDIO
    TITLE "0:"
    INDEX 01 00:15:62
  TRACK 14 AUDIO
    TITLE "9:cjc058_4300"
    INDEX 01 00:16:36
  TRACK 15 AUDIO
    TITLE "0:"
    INDEX 01 00:22:25
  TRACK 16 AUDIO
    TITLE "7:cjc058_4301"
    INDEX 01 00:23:36
  TRACK 17 AUDIO
    TITLE "0:"
    INDEX 01 00:25:05
  TRACK 18 AUDIO
    TITLE "8:cjc058_4302"
    INDEX 01 00:25:41
  TRACK 19 AUDIO
    TITLE "0:"
    INDEX 01 00:26:67
  TRACK 20 AUDIO
    TITLE "9:cjc058_4303"
    INDEX 01 00:27:41
  TRACK 21 AUDIO
    TITLE "0:"
    INDEX 01 00:31:49
  TRACK 22 AUDIO
    TITLE "7:cjc058_4304"
    INDEX 01 00:32:58
  TRACK 23 AUDIO
    TITLE "0:"
    INDEX 01 00:34:10
  TRACK 24 AUDIO
    TITLE "8:cjc058_4305"
    INDEX 01 00:34:45
  TRACK 25 AUDIO
    TITLE "0:"
    INDEX 01 00:35:70
  TRACK 26 AUDIO
    TITLE "9:cjc058_4306"
    INDEX 01 00:36:42
  TRACK 27 AUDIO
    TITLE "0:"
    INDEX 01 00:42:00
  TRACK 28 AUDIO
    TITLE "7:cjc058_4307"
    INDEX 01 00:43:11
  TRACK 29 AUDIO
    TITLE "0:"
    INDEX 01 00:44:26
  TRACK 30 AUDIO
    TITLE "8:cjc058_4308"
    INDEX 01 00:44:60
  TRACK 31 AUDIO
    TITLE "0:"
    INDEX 01 00:47:15
  TRACK 32 AUDIO
    TITLE "9:cjc058_4309"
    INDEX 01 00:47:64
  TRACK 33 AUDIO
    TITLE "0:"
    INDEX 01 00:52:32
  TRACK 34 AUDIO
    TITLE "7:cjc058_4310"
    INDEX 01 00:53:43
  TRACK 35 AUDIO
    TITLE "0:"
    INDEX 01 00:54:62
  TRACK 36 AUDIO
    TITLE "8:cjc058_4311"
    INDEX 01 00:55:24
  TRACK 37 AUDIO
    TITLE "0:"
    INDEX 01 00:56:33
  TRACK 38 AUDIO
    TITLE "9:cjc058_4312"
    INDEX 01 00:57:09
  TRACK 39 AUDIO
    TITLE "0:"
    INDEX 01 01:01:05
  TRACK 40 AUDIO
    TITLE "7:cjc058_4313"
    INDEX 01 01:02:14
  TRACK 41 AUDIO
    TITLE "0:"
    INDEX 01 01:03:27
  TRACK 42 AUDIO
    TITLE "8:cjc058_4314"
    INDEX 01 01:03:59
  TRACK 43 AUDIO
    TITLE "0:"
    INDEX 01 01:06:10
  TRACK 44 AUDIO
    TITLE "9:cjc058_4315"
    INDEX 01 01:06:57
  TRACK 45 AUDIO
    TITLE "0:"
    INDEX 01 01:10:06
  TRACK 46 AUDIO
    TITLE "7:cjc058_4316"
    INDEX 01 01:11:17
  TRACK 47 AUDIO
    TITLE "0:"
    INDEX 01 01:12:60
  TRACK 48 AUDIO
    TITLE "8:cjc058_4317"
    INDEX 01 01:13:22
  TRACK 49 AUDIO
    TITLE "0:"
    INDEX 01 01:15:29
  TRACK 50 AUDIO
    TITLE "9:cjc058_4318"
    INDEX 01 01:16:05
  TRACK 51 AUDIO
    TITLE "0:"
    INDEX 01 01:20:04
  TRACK 52 AUDIO
    TITLE "7:cjc058_4319"
    INDEX 01 01:21:14
  TRACK 53 AUDIO
    TITLE "0:"
    INDEX 01 01:22:54
  TRACK 54 AUDIO
    TITLE "8:cjc058_4320"
    INDEX 01 01:23:15
  TRACK 55 AUDIO
    TITLE "0:"
    INDEX 01 01:25:41
  TRACK 56 AUDIO
    TITLE "9:cjc058_4321"
    INDEX 01 01:26:13
  TRACK 57 AUDIO
    TITLE "0:"
    INDEX 01 01:30:18
  TRACK 58 AUDIO
    TITLE "7:cjc058_4322"
    INDEX 01 01:31:28
  TRACK 59 AUDIO
    TITLE "0:"
    INDEX 01 01:32:53
  TRACK 60 AUDIO
    TITLE "8:cjc058_4323"
    INDEX 01 01:33:15
  TRACK 61 AUDIO
    TITLE "0:"
    INDEX 01 01:35:59
  TRACK 62 AUDIO
    TITLE "9:cjc058_4324"
    INDEX 01 01:36:33
  TRACK 63 AUDIO
    TITLE "0:"
    INDEX 01 01:40:35
  TRACK 64 AUDIO
    TITLE "7:cjc058_4325"
    INDEX 01 01:41:44
  TRACK 65 AUDIO
    TITLE "0:"
    INDEX 01 01:42:63
  TRACK 66 AUDIO
    TITLE "8:cjc058_4326"
    INDEX 01 01:43:25
  TRACK 67 AUDIO
    TITLE "0:"
    INDEX 01 01:45:24
  TRACK 68 AUDIO
    TITLE "9:cjc058_4327"
    INDEX 01 01:45:67
  TRACK 69 AUDIO
    TITLE "0:"
    INDEX 01 01:51:58
  TRACK 70 AUDIO
    TITLE "7:cjc058_4328"
    INDEX 01 01:52:71
  TRACK 71 AUDIO
    TITLE "0:"
    INDEX 01 01:54:29
  TRACK 72 AUDIO
    TITLE "8:cjc058_4329"
    INDEX 01 01:54:62
  TRACK 73 AUDIO
    TITLE "0:"
    INDEX 01 01:57:33
  TRACK 74 AUDIO
    TITLE "9:cjc058_4330"
    INDEX 01 01:58:03
  TRACK 75 AUDIO
    TITLE "0:"
    INDEX 01 02:00:74
  TRACK 76 AUDIO
    TITLE "7:cjc058_4331"
    INDEX 01 02:02:09
  TRACK 77 AUDIO
    TITLE "0:"
    INDEX 01 02:03:47
  TRACK 78 AUDIO
    TITLE "8:cjc058_4332"
    INDEX 01 02:04:08
  TRACK 79 AUDIO
    TITLE "0:"
    INDEX 01 02:06:42
  TRACK 80 AUDIO
    TITLE "9:cjc058_4333"
    INDEX 01 02:07:16
  TRACK 81 AUDIO
    TITLE "0:"
    INDEX 01 02:10:34
  TRACK 82 AUDIO
    TITLE "7:cjc058_4334"
    INDEX 01 02:11:45
  TRACK 83 AUDIO
    TITLE "0:"
    INDEX 01 02:13:03
  TRACK 84 AUDIO
    TITLE "8:cjc058_4335"
    INDEX 01 02:13:40
  TRACK 85 AUDIO
    TITLE "0:"
    INDEX 01 02:16:09
  TRACK 86 AUDIO
    TITLE "9:cjc058_4336"
    INDEX 01 02:16:54
  TRACK 87 AUDIO
    TITLE "0:"
    INDEX 01 02:21:22
  TRACK 88 AUDIO
    TITLE "7:cjc058_4337"
    INDEX 01 02:22:33
  TRACK 89 AUDIO
    TITLE "0:"
    INDEX 01 02:23:64
  TRACK 90 AUDIO
    TITLE "8:cjc058_4338"
    INDEX 01 02:24:22
  TRACK 91 AUDIO
    TITLE "0:"
    INDEX 01 02:26:46
  TRACK 92 AUDIO
    TITLE "9:cjc058_4339"
    INDEX 01 02:27:18
  TRACK 93 AUDIO
    TITLE "0:"
    INDEX 01 02:31:16
  TRACK 94 AUDIO
    TITLE "7:cjc058_4340"
    INDEX 01 02:32:24
  TRACK 95 AUDIO
    TITLE "0:"
    INDEX 01 02:33:43
  TRACK 96 AUDIO
    TITLE "8:cjc058_4341"
    INDEX 01 02:34:03
  TRACK 97 AUDIO
    TITLE "0:"
    INDEX 01 02:36:13
  TRACK 98 AUDIO
    TITLE "9:cjc058_4342"
    INDEX 01 02:36:59
  TRACK 99 AUDIO
    TITLE "0:"
    INDEX 01 02:40:41
  TRACK 100 AUDIO
    TITLE "7:cjc058_4343"
    INDEX 01 02:41:52
  TRACK 101 AUDIO
    TITLE "0:"
    INDEX 01 02:43:06
  TRACK 102 AUDIO
    TITLE "8:cjc058_4344"
    INDEX 01 02:43:37
  TRACK 103 AUDIO
    TITLE "0:"
    INDEX 01 02:46:51
  TRACK 104 AUDIO
    TITLE "9:cjc058_4345"
    INDEX 01 02:47:23
  TRACK 105 AUDIO
    TITLE "0:"
    INDEX 01 02:52:01
  TRACK 106 AUDIO
    TITLE "7:cjc058_4346"
    INDEX 01 02:53:12
  TRACK 107 AUDIO
    TITLE "0:"
    INDEX 01 02:54:23
  TRACK 108 AUDIO
    TITLE "8:cjc058_4347"
    INDEX 01 02:54:58
  TRACK 109 AUDIO
    TITLE "0:"
    INDEX 01 02:58:29
  TRACK 110 AUDIO
    TITLE "9:cjc058_4348"
    INDEX 01 02:59:03
  TRACK 111 AUDIO
    TITLE "0:"
    INDEX 01 03:04:02
  TRACK 112 AUDIO
    TITLE "7:cjc058_4349"
    INDEX 01 03:05:13
  TRACK 113 AUDIO
    TITLE "0:"
    INDEX 01 03:06:34
  TRACK 114 AUDIO
    TITLE "8:cjc058_4350"
    INDEX 01 03:06:69
  TRACK 115 AUDIO
    TITLE "0:"
    INDEX 01 03:08:00
  TRACK 116 AUDIO
    TITLE "9:cjc058_4351"
    INDEX 01 03:08:49
  TRACK 117 AUDIO
    TITLE "0:"
    INDEX 01 03:14:28
  TRACK 118 AUDIO
    TITLE "7:cjc058_4352"
    INDEX 01 03:15:41
  TRACK 119 AUDIO
    TITLE "0:"
    INDEX 01 03:17:07
  TRACK 120 AUDIO
    TITLE "8:cjc058_4353"
    INDEX 01 03:17:42
  TRACK 121 AUDIO
    TITLE "0:"
    INDEX 01 03:20:15
  TRACK 122 AUDIO
    TITLE "9:cjc058_4354"
    INDEX 01 03:20:64
  TRACK 123 AUDIO
    TITLE "0:"
    INDEX 01 03:24:71
  TRACK 124 AUDIO
    TITLE "7:cjc058_4355"
    INDEX 01 03:26:04
  TRACK 125 AUDIO
    TITLE "0:"
    INDEX 01 03:27:38
  TRACK 126 AUDIO
    TITLE "8:cjc058_4356"
    INDEX 01 03:27:72
  TRACK 127 AUDIO
    TITLE "0:"
    INDEX 01 03:29:39
  TRACK 128 AUDIO
    TITLE "9:cjc058_4357"
    INDEX 01 03:30:11
  TRACK 129 AUDIO
    TITLE "0:"
    INDEX 01 03:34:34
  TRACK 130 AUDIO
    TITLE "7:cjc058_4358"
    INDEX 01 03:35:44
  TRACK 131 AUDIO
    TITLE "0:"
    INDEX 01 03:37:13
  TRACK 132 AUDIO
    TITLE "8:cjc058_4359"
    INDEX 01 03:37:46
  TRACK 133 AUDIO
    TITLE "0:"
    INDEX 01 03:39:04
  TRACK 134 AUDIO
    TITLE "9:cjc058_4360"
    INDEX 01 03:39:47
  TRACK 135 AUDIO
    TITLE "0:"
    INDEX 01 03:45:44
  TRACK 136 AUDIO
    TITLE "7:cjc058_4361"
    INDEX 01 03:46:55
  TRACK 137 AUDIO
    TITLE "0:"
    INDEX 01 03:48:15
  TRACK 138 AUDIO
    TITLE "8:cjc058_4362"
    INDEX 01 03:48:52
  TRACK 139 AUDIO
    TITLE "0:"
    INDEX 01 03:50:06
  TRACK 140 AUDIO
    TITLE "9:cjc058_4363"
    INDEX 01 03:50:53
  TRACK 141 AUDIO
    TITLE "0:"
    INDEX 01 03:55:05
  TRACK 142 AUDIO
    TITLE "7:cjc058_4364"
    INDEX 01 03:56:16
  TRACK 143 AUDIO
    TITLE "0:"
    INDEX 01 03:57:63
  TRACK 144 AUDIO
    TITLE "8:cjc058_4365"
    INDEX 01 03:58:25
  TRACK 145 AUDIO
    TITLE "0:"
    INDEX 01 03:59:70
  TRACK 146 AUDIO
    TITLE "9:cjc058_4366"
    INDEX 01 04:00:44
  TRACK 147 AUDIO
    TITLE "0:"
    INDEX 01 04:04:61
  TRACK 148 AUDIO
    TITLE "7:cjc058_4367"
    INDEX 01 04:05:70
  TRACK 149 AUDIO
    TITLE "0:"
    INDEX 01 04:07:36
  TRACK 150 AUDIO
    TITLE "8:cjc058_4368"
    INDEX 01 04:07:73
  TRACK 151 AUDIO
    TITLE "0:"
    INDEX 01 04:11:24
  TRACK 152 AUDIO
    TITLE "9:cjc058_4369"
    INDEX 01 04:11:73
  TRACK 153 AUDIO
    TITLE "0:"
    INDEX 01 04:16:03
  TRACK 154 AUDIO
    TITLE "7:cjc058_4370"
    INDEX 01 04:17:11
  TRACK 155 AUDIO
    TITLE "0:"
    INDEX 01 04:18:55
  TRACK 156 AUDIO
    TITLE "8:cjc058_4371"
    INDEX 01 04:19:17
  TRACK 157 AUDIO
    TITLE "0:"
    INDEX 01 04:21:34
  TRACK 158 AUDIO
    TITLE "9:cjc058_4372"
    INDEX 01 04:22:08
  TRACK 159 AUDIO
    TITLE "0:"
    INDEX 01 04:26:53
